<?xml version="1.0" encoding="UTF-8"?>
<svg id="Layer_1" data-name="Layer 1" xmlns="http://www.w3.org/2000/svg" width="1200" height="1200" xmlns:xlink="http://www.w3.org/1999/xlink" viewBox="0 0 1200 1200">
  <defs>
    <filter id="outer-glow-1" filterUnits="userSpaceOnUse">
      <feOffset dx="0" dy="0"/>
      <feGaussianBlur result="blur" stdDeviation="70"/>
      <feFlood flood-color="#02adef" flood-opacity=".75"/>
      <feComposite in2="blur" operator="in"/>
      <feComposite in="SourceGraphic"/>
    </filter>
    <radialGradient id="radial-gradient" cx="600" cy="600" fx="600" fy="600" r="537.49" gradientTransform="translate(0 40.96) scale(1 .93)" gradientUnits="userSpaceOnUse">
      <stop offset=".16" stop-color="#02adef"/>
      <stop offset="1" stop-color="#2a59be"/>
    </radialGradient>
  </defs>
  <g id="Active_Directory" data-name="Active Directory" style="filter: url(#outer-glow-1);">
    <path d="m125.21,258.6l388.07-52.85.17,374.32-387.88,2.21-.35-323.68h0Zm387.88,364.6l.3,374.65-387.88-53.33-.02-323.83,387.6,2.51h0Zm47.04-424.36l514.54-75.1v451.57l-514.54,4.08V198.84h0Zm514.66,427.89l-.12,449.54-514.54-72.62-.72-377.76,515.38.84Z" style="fill: url(#radial-gradient);"/>
  </g>
  <g id="Artwork_35" data-name="Artwork 35">
    <g>
      <path id="cloud" d="m1048.19,1003.75c-1.12-6.67-6.31-11.85-12.53-12.05l-2.25-.07c-1.68-9.22-8.98-15.93-17.59-15.93s-15.96,6.31-17.62,14.87c-6.38.49-11.38,5.69-11.38,12.19,0,6.97,5.72,13.14,12.75,13.76l18.88,1.66c.99.05,1.78-.78,1.73-1.86-.04-1.01-.79-1.9-1.73-2l-18.88-1.51c-5.04-.4-9.14-4.81-9.14-9.82s4.1-8.93,9.14-8.73c1.86.06,3.69.73,5.2,1.92.72.57,1.71.54,2.33-.08h0c.71-.7.71-1.88.01-2.65h-.01c-.07-.09-.14-.15-.22-.22-1.51-1.17-3.23-1.99-5.04-2.39,1.54-6.59,7.24-11.34,13.94-11.29,7.09.06,13.07,5.77,14.17,13.44-.57.3-1.12.64-1.64,1.02-.81.6-1,1.82-.44,2.73.06.09.12.18.2.27h0c.62.71,1.61.83,2.33.29,1.52-1.13,3.34-1.69,5.2-1.6,4.45.18,8.16,3.88,8.97,8.61.16.97.91,1.71,1.78,1.77h0c.99.07,1.8-.79,1.81-1.93h0c.02-.13.02-.28,0-.41Z" style="fill: #fff;"/>
      <g id="numbers">
        <path d="m1025.71,1015.63l-1.55-.13v-5.35s.04-.83.04-.83c-.18.18-.35.35-.54.51l-.85.68-.75-1.06,2.37-1.88,1.27.08.02,7.97Z" style="fill: #fff;"/>
        <path d="m1032.84,1012.17c0,1.41-.21,2.45-.64,3.09-.42.64-1.07.92-1.94.85s-1.48-.47-1.92-1.2c-.44-.73-.65-1.77-.65-3.12s.21-2.44.62-3.09c.41-.65,1.06-.93,1.93-.88s1.48.45,1.92,1.19c.46.74.67,1.8.67,3.16Zm-3.59-.26c0,.98.08,1.69.24,2.14.15.45.42.68.79.71s.62-.17.79-.58c.16-.41.24-1.12.24-2.12s-.08-1.71-.25-2.15c-.16-.44-.42-.68-.78-.7s-.62.18-.79.59c-.16.41-.24,1.12-.24,2.11Z" style="fill: #fff;"/>
        <path d="m1025.71,1027.75l-1.55-.17v-5.35s.04-.83.04-.83c-.18.17-.35.34-.54.5l-.85.66-.75-1.08,2.37-1.82,1.27.11.02,7.97Z" style="fill: #fff;"/>
        <path d="m1031.58,1028.37l-1.55-.17v-5.42s.04-.84.04-.84c-.18.18-.35.34-.54.5l-.85.67-.75-1.09,2.37-1.84,1.27.11v8.06h.02Z" style="fill: #fff;"/>
        <path d="m1037.47,1029l-1.55-.17v-5.48s.04-.85.04-.85c-.18.18-.35.35-.54.51l-.85.67-.75-1.1,2.37-1.87,1.27.11.02,8.16Z" style="fill: #fff;"/>
        <path d="m1044.59,1025.61c0,1.45-.21,2.5-.64,3.15-.42.65-1.07.93-1.94.84s-1.48-.51-1.92-1.27c-.44-.76-.65-1.83-.65-3.22s.21-2.49.62-3.15c.41-.66,1.06-.93,1.93-.85s1.48.49,1.92,1.26c.46.76.68,1.84.67,3.25Zm-3.59-.35c0,1,.08,1.74.24,2.2.15.46.41.7.79.74s.62-.16.79-.58c.16-.42.24-1.14.24-2.15s-.08-1.76-.25-2.21c-.16-.45-.42-.7-.78-.73s-.62.17-.79.59c-.16.42-.24,1.13-.24,2.14Z" style="fill: #fff;"/>
        <path d="m1047.95,1035.95c0,1.06-.15,1.83-.46,2.3-.31.47-.78.67-1.41.59s-1.08-.4-1.39-.96c-.31-.56-.47-1.35-.47-2.37s.15-1.83.46-2.3c.31-.47.78-.67,1.41-.6s1.08.39,1.4.96c.32.57.47,1.36.46,2.38Zm-2.61-.31c0,.74.06,1.28.16,1.62.07.3.31.52.58.55s.45-.11.57-.42c.12-.32.18-.83.18-1.57s-.06-1.29-.18-1.62c-.12-.33-.31-.53-.57-.56s-.46.11-.57.43c-.11.32-.18.83-.18,1.58h0Z" style="fill: #fff;"/>
        <path d="m1051.32,1039.4l-1.13-.14v-4.11s.04-.63.04-.63c-.19.19-.32.31-.39.37l-.61.49-.54-.84,1.72-1.36.93.1v6.11h-.01Z" style="fill: #fff;"/>
        <path d="m1025.38,1033.36c0,1-.15,1.71-.45,2.14-.29.44-.77.62-1.39.54s-1.06-.37-1.37-.91c-.31-.53-.46-1.26-.46-2.21s.15-1.71.45-2.14c.29-.44.75-.63,1.38-.56s1.06.36,1.37.89c.31.53.47,1.28.47,2.24Zm-2.56-.3c0,.69.06,1.2.16,1.51.07.28.31.5.57.51.26.03.45-.1.55-.39.11-.29.18-.78.18-1.47s-.06-1.21-.18-1.51c-.12-.31-.29-.49-.55-.52s-.45.1-.55.39c-.11.29-.19.78-.18,1.48h0Z" style="fill: #fff;"/>
        <path d="m1028.67,1036.61l-1.11-.14v-3.84s.04-.59.04-.59c-.19.18-.31.3-.38.35l-.6.46-.53-.79,1.68-1.27.91.1v5.71Z" style="fill: #fff;"/>
        <path d="m1033.75,1034.35c0,1.01-.15,1.74-.45,2.18-.29.44-.77.63-1.39.56s-1.06-.38-1.37-.92c-.31-.54-.46-1.28-.46-2.25s.15-1.74.45-2.18c.29-.44.75-.64,1.38-.57s1.06.37,1.37.91c.31.54.47,1.3.47,2.28Zm-2.56-.3c0,.7.06,1.22.16,1.53.07.28.31.5.57.52.27.03.45-.1.55-.4.11-.3.18-.8.18-1.5s-.06-1.23-.18-1.54c-.12-.31-.31-.5-.55-.53s-.45.1-.55.4c-.11.3-.19.79-.18,1.51h0Z" style="fill: #fff;"/>
        <path d="m1037.03,1037.64l-1.11-.14v-3.9s.04-.6.04-.6c-.19.19-.32.3-.39.36l-.6.47-.53-.8,1.68-1.3.91.1v5.81Z" style="fill: #fff;"/>
        <path d="m1024.28,1040.45c0,.71-.11,1.22-.32,1.54-.21.32-.54.44-1,.37-.39-.03-.77-.28-.98-.67-.22-.39-.33-.92-.33-1.6,0-.72.11-1.23.32-1.54.21-.32.54-.44.99-.38.39.02.77.28.99.66.21.4.33.94.33,1.62Zm-1.85-.24c0,.5.04.86.12,1.08.06.25.28.41.51.37h.01c.14-.02.25-.12.28-.27.08-.21.12-.56.12-1.05.01-.37-.02-.74-.13-1.1-.06-.24-.28-.41-.49-.38h-.02c-.14.02-.25.12-.28.27-.08.36-.12.71-.11,1.08Z" style="fill: #fff;"/>
        <path d="m1026.65,1042.82l-.8-.11v-2.75s.02-.42.02-.42c-.13.12-.22.21-.27.25l-.44.31-.39-.56,1.21-.89.65.08v4.09Z" style="fill: #fff;"/>
        <path d="m1034.74,1047.03c0,.73-.11,1.25-.33,1.57-.22.32-.55.44-1,.37-.39-.03-.77-.29-.98-.69-.22-.4-.33-.94-.33-1.64s.11-1.25.32-1.58c.21-.32.54-.44.99-.38.39.03.77.29.99.68.24.41.34.96.34,1.66Zm-1.84-.26c0,.51.04.87.12,1.11.06.24.28.42.49.4h.02c.14-.01.25-.12.28-.27.08-.21.12-.57.12-1.08.01-.38-.02-.76-.13-1.12-.05-.2-.21-.37-.4-.39s-.35.08-.4.28c-.07.2-.11.56-.11,1.08Z" style="fill: #fff;"/>
        <path d="m1037.12,1049.47l-.8-.12v-2.81s.02-.43.02-.43c-.13.13-.22.22-.27.25l-.44.33-.39-.59,1.21-.9.66.09v4.18Z" style="fill: #fff;"/>
        <path d="m1043.37,1042.16c0,1.03-.15,1.77-.45,2.22-.29.45-.77.64-1.39.55s-1.06-.4-1.37-.95c-.31-.55-.46-1.31-.46-2.3s.15-1.77.45-2.22c.29-.45.75-.64,1.38-.57s1.06.38,1.37.94c.31.56.47,1.33.47,2.33Zm-2.56-.33c0,.73.06,1.25.16,1.56.07.29.31.52.57.54.26.03.45-.1.55-.4.11-.3.18-.81.18-1.52s-.06-1.25-.18-1.58c-.12-.33-.31-.51-.57-.55s-.45.1-.55.4c-.11.3-.16.84-.16,1.55h0Z" style="fill: #fff;"/>
        <path d="m1046.67,1045.55l-1.11-.15v-3.98s.04-.61.04-.61c-.19.19-.31.31-.38.36l-.6.47-.53-.83,1.68-1.3.91.11v5.92h-.01Z" style="fill: #fff;"/>
        <path d="m1051.74,1043.25c0,1.05-.15,1.8-.45,2.26-.29.46-.77.65-1.39.56s-1.06-.4-1.37-.96c-.31-.56-.46-1.33-.46-2.34s.15-1.8.45-2.26c.29-.46.75-.66,1.38-.58s1.06.39,1.37.95c.31.56.47,1.35.47,2.36Zm-2.56-.33c0,.74.06,1.27.16,1.59.07.29.31.52.57.55.26.03.45-.1.55-.41.11-.31.18-.82.18-1.55s-.06-1.27-.18-1.61c-.12-.34-.31-.52-.55-.55s-.45.1-.55.41c-.11.31-.18.85-.18,1.57h0Z" style="fill: #fff;"/>
        <path d="m1043.71,1017.1l-1.55-.13v-5.55s.04-.86.04-.86c-.18.19-.35.36-.54.53l-.85.71-.75-1.09,2.37-1.95,1.28.08v8.26h.01Z" style="fill: #fff;"/>
        <path d="m1050.85,1013.49c0,1.47-.21,2.54-.64,3.2-.42.66-1.07.96-1.94.89s-1.48-.48-1.92-1.24c-.44-.75-.65-1.84-.65-3.23s.21-2.53.62-3.21c.41-.68,1.06-.97,1.93-.91s1.48.46,1.92,1.23c.44.77.66,1.86.67,3.27Zm-3.6-.26c0,1.01.08,1.76.24,2.22.15.47.42.7.79.73s.62-.18.79-.61c.16-.43.24-1.16.24-2.19s-.08-1.78-.25-2.23c-.16-.45-.42-.7-.78-.72s-.62.18-.79.61c-.16.43-.24,1.16-.24,2.19h0Z" style="fill: #fff;"/>
      </g>
    </g>
  </g>
</svg>